# xmcd CD database file
#
# Track frame offsets:
#	150
#	19843
#	27719
#	54718
#	77218
#	87062
#	107311
#	126437
#	146125
#	168625
#	183672
#	197170
#	218265
#	226140
#	241890
#	259609
#	275921
#	291637
#	309672
#
# Disc length: 4456 seconds
#
# Revision: 1
# Processed by: cddbd v1.5.2PL0 Copyright (c) Steve Scherf et al.
# Submitted via: CDex 1.70beta2
#
DISCID=1e116613
DTITLE=Rasmus Faber - Love：Mixed 2
DYEAR=2011
DGENRE=Jazz
TTITLE0=Good Times Come Back
TTITLE1=Southern Comfort [Original Mix]
TTITLE2=Your Beat Sounds Like [Rasmus Faber 2011 Re-Edit]
TTITLE3=Leave Me Alone
TTITLE4=Disco Fever [Original Mix]
TTITLE5=Like That Sound [Syke’n’Sugarstarr Extended Vocal Mix]
TTITLE6=Give It To Me [Spiritchaser Remix]
TTITLE7=Too Late [Rasmus Faber Remix]
TTITLE8=Memories [90’s Piano Mix]
TTITLE9=Fallin [Original Mix]
TTITLE10=Think About It [Original Mix]
TTITLE11=Are You Ready [Rasmus Faber Farplane Club Mix]
TTITLE12=Grindhouse／Black Mamba [RaFa’s Grinding Mamba]
TTITLE13=Niton (The Reason) [Club Mix]
TTITLE14=Ride My Time [Instrumental Mix]
TTITLE15=Wilder Side [RaFa Remix／Original Mix]
TTITLE16=Sign Your Name (Across My Heart) [Denzal Park Remix]
TTITLE17=So Alive [Tito ＆ Slider Dub]
TTITLE18=Always [Fred Scott Remix]
EXTD=YEAR: 2011
EXTT0=
EXTT1=
EXTT2=
EXTT3=
EXTT4=
EXTT5=
EXTT6=
EXTT7=
EXTT8=
EXTT9=
EXTT10=
EXTT11=
EXTT12=
EXTT13=
EXTT14=
EXTT15=
EXTT16=
EXTT17=
EXTT18=
PLAYORDER=
